# xmcd CD database file
#
# Track frame offsets:
#	183
#	38345
#	57523
#	72640
#	111145
#	138708
#	168785
#	204290
#	221115
#	231520
#	257345
#	286033
#
# Disc length: 4191 seconds
#
# Revision: 0
# Processed by: cddbd v1.5.2PL0 Copyright (c) Steve Scherf et al.
# Submitted via: CDex 1.70beta2
#
DISCID=b0105d0c
DTITLE=Various Artist - ECM Spectrum
DYEAR=1984
DGENRE=Jazz
TTITLE0=Oregon - The Rapids
TTITLE1=Charlie Haden -  Els Segadors
TTITLE2=Pat Metheny - Barcarole
TTITLE3=Rypdal - Sunrise
TTITLE4=Shankar - Paper Nut
TTITLE5=Gismonti - Bianca
TTITLE6=Keith Jarret - Never Let Me Go
TTITLE7=Gismonti - Tomarapeba
TTITLE8=Keith Jarret - Belonging
TTITLE9=Steve Eliovson - Africa
TTITLE10=Steve Tibbets - Test
TTITLE11=John Surman - The Lamplighter
EXTD=YEAR: 1984
EXTT0=
EXTT1=
EXTT2=
EXTT3=
EXTT4=
EXTT5=
EXTT6=
EXTT7=
EXTT8=
EXTT9=
EXTT10=
EXTT11=
PLAYORDER=
